<svg width="195" height="194" viewBox="0 0 195 194" fill="none" xmlns="http://www.w3.org/2000/svg">
<circle cx="97.4736" cy="97" r="97" fill="#53505B"/>
<path d="M136.96 37.3689H93.8425C92.6607 37.3656 91.4899 37.6028 90.398 38.0669C89.3062 38.5309 88.3148 39.2125 87.4814 40.0722L56.3811 71.979C55.5432 72.8341 54.8788 73.8511 54.4265 74.9713C53.9742 76.0915 53.7429 77.2926 53.7461 78.5051V155.043C53.7488 157.49 54.6975 159.836 56.384 161.567C58.0705 163.297 60.3571 164.27 62.7422 164.273H136.96C139.345 164.27 141.632 163.297 143.318 161.567C145.005 159.836 145.953 157.49 145.956 155.043V46.5982C145.953 44.1513 145.005 41.8054 143.318 40.0751C141.632 38.3449 139.345 37.3716 136.96 37.3689ZM136.96 155.043H62.7422V78.5051L93.8425 46.5982H136.96V155.043Z" fill="white"/>
<path d="M87.4805 145.814H127.963V88.1304H87.4805V145.814ZM96.4766 97.3598H118.967V136.585H96.4766V97.3598Z" fill="white"/>
</svg>
