<svg width="194" height="194" viewBox="0 0 194 194" fill="none" xmlns="http://www.w3.org/2000/svg">
<circle cx="97" cy="97" r="97" fill="black"/>
<path d="M24 81.6263V89.6723L45.5424 87.2848V78.5762L24 81.6263ZM30.8745 90.1618V117.733H38.7614V89.3496L30.8745 90.1618ZM48.4518 78.1643V117.733H56.7623V76.987L48.4518 78.1643ZM58.3106 76.7676V85.87L70.3111 84.5398V75.0687L58.3106 76.7676ZM58.3106 92.6449V101.913L66.1881 101.48V91.9618L58.3106 92.6449ZM58.3106 108.594V117.733H70.3111V108.229L58.3106 108.594ZM101.346 70.66V117.733H112.24V69.1172L101.346 70.66ZM114.275 68.8288V79.6566L130.151 77.8977V66.58L114.275 68.8288ZM114.275 87.7999V98.8283L124.681 98.2558V86.902L114.275 87.7999ZM114.275 106.889V117.733H130.151V106.406L114.275 106.889ZM73.4863 74.6183V117.733H82.953V73.2773L73.4863 74.6183ZM84.7199 107.791V117.733H98.4613V107.373L84.7199 107.791ZM165.746 66.0478C162.303 62.77 157.254 61.4256 151.732 62.2249V74.2343C153.968 74.1092 155.78 74.9453 156.588 76.6288C157.863 79.2829 156.547 83.2652 153.445 86.9547C148.656 92.6483 135.922 104.302 135.922 104.302L154.202 103.696C165.372 92.7019 169.383 86.0282 170.102 77.6989C170.481 73.2923 168.893 69.0465 165.746 66.0478ZM170.746 117.733V105.167L133.669 106.292M133.669 106.292L133.673 117.733H170.746M149.601 62.4945C138.83 64.8058 133.54 72.79 134.151 85.8182L145.635 84.7913C145.112 77.431 147.347 75.685 149.606 74.725L149.601 62.4945Z" fill="white"/>
</svg>
