<svg width="189" height="64" viewBox="0 0 189 64" fill="none" xmlns="http://www.w3.org/2000/svg">
<path d="M45.8343 0H19.0072C8.50983 0 0 8.39938 0 18.7605V45.2394C0 55.6006 8.50983 64 19.0072 64H45.8343C56.3317 64 64.8416 55.6006 64.8416 45.2394V18.7605C64.8416 8.39938 56.3317 0 45.8343 0Z" fill="url(#paint0_linear_1998_662)"/>
<path d="M43.5112 38.326H23.0255L32.2633 25.674L36.2231 20.252H29.4521L28.6052 21.4123L25.5035 25.6596L16.2534 38.326L12.2947 43.748H20.3041H49.0057V42.7449V38.326V28.0334H43.5112V38.326Z" fill="white"/>
<path d="M43.5111 20.252H38.0178V25.674H43.5111V20.252Z" fill="white"/>
<path d="M20.4051 20.252H14.9106V25.674H20.4051V20.252Z" fill="white"/>
<path d="M54.4989 20.252H49.0056V25.674H54.4989V20.252Z" fill="white"/>
<path d="M75.5847 27.637V25.1292H89.0111L80.5844 35.6123H88.8384V38.1112H75.4209L83.8476 27.637H75.5847Z" fill="white"/>
<path d="M102.83 25.1115H108.921V38.1112H106.271V27.6459L103.913 27.6548H103.346C102.03 27.6548 101.299 27.709 101.152 27.8175C100.756 27.9194 100.39 28.0822 100.055 28.3047C99.7196 28.5273 99.4212 28.8129 99.1587 29.1617C98.8536 29.5702 98.6315 29.9799 98.4913 30.3885C98.351 30.797 98.2815 31.21 98.2815 31.6241C98.2815 32.1356 98.378 32.6239 98.5698 33.0901C98.7616 33.5562 99.0622 33.9969 99.4706 34.4121C99.7263 34.6712 99.9697 34.8738 100.202 35.021C100.433 35.1683 100.646 35.2657 100.841 35.3144C101.232 35.5071 101.892 35.6034 102.825 35.6034H104.662V38.1112H102.459C101.637 38.1112 100.881 38.0094 100.192 37.8046C99.5031 37.5997 98.8783 37.2808 98.3185 36.8479C97.9046 36.529 97.5658 36.2246 97.3044 35.9323C97.0419 35.6411 96.8355 35.3687 96.683 35.1163C96.3543 34.5693 96.1008 34.0257 95.9246 33.4875C95.7474 32.9494 95.6599 32.3981 95.6599 31.8323V31.4536C95.6599 30.6653 95.8046 29.9124 96.094 29.1938C96.3835 28.4752 96.8333 27.7943 97.4435 27.1499C97.7913 26.7889 98.1143 26.5033 98.4127 26.2929C98.7111 26.0825 98.977 25.932 99.2081 25.8423C99.5311 25.6618 99.9854 25.4902 100.571 25.3285C101.089 25.1846 101.842 25.1115 102.83 25.1115Z" fill="white"/>
<path d="M115.9 27.6282V25.1204H124.364C125.835 25.1204 127.004 25.5621 127.87 26.4468C128.242 26.8133 128.504 27.151 128.657 27.4577C128.815 27.7887 128.937 28.1098 129.022 28.4232C129.108 28.7365 129.15 29.0487 129.15 29.361V29.7308C129.15 30.2058 129.049 30.6785 128.848 31.1469C128.648 31.6164 128.33 32.0736 127.898 32.5176C127.643 32.7878 127.389 33.0004 127.14 33.1532C126.89 33.3071 126.655 33.4189 126.437 33.492C127.542 34.659 128.095 36.198 128.095 38.1112H125.444V37.9219C125.444 36.4903 124.862 35.3632 123.698 34.5394C123.047 34.0766 122.178 33.8452 121.094 33.8452H115.902V31.3373H124.531C125.467 31.3373 126.107 30.8767 126.447 29.9566C126.465 29.8603 126.482 29.7751 126.497 29.6998C126.512 29.6245 126.52 29.5536 126.52 29.4872C126.525 28.9878 126.31 28.525 125.872 28.0976C125.496 27.8087 125.1 27.6647 124.686 27.6647C124.686 27.6404 124.558 27.6282 124.302 27.6282H115.902H115.9Z" fill="white"/>
<path d="M136.14 38.1112V25.1292H138.791V38.1112H136.14Z" fill="white"/>
<path d="M157.76 27.709C157.9 27.8839 158.012 28.0456 158.099 28.1962C158.184 28.3468 158.26 28.4818 158.328 28.6025C158.413 28.7586 158.496 28.9336 158.574 29.1262C158.654 29.3189 158.733 29.5414 158.812 29.7939C158.995 30.4017 159.087 31.2189 159.087 32.2474V38.1112H156.436V31.9673C156.436 30.9265 156.202 30.0596 155.733 29.3643C155.264 28.6701 154.551 28.1541 153.594 27.8175C153.381 27.7455 153.178 27.6957 152.986 27.6691C152.794 27.6426 152.616 27.6282 152.451 27.6282C152.286 27.6282 152.11 27.6415 151.92 27.6691C151.732 27.6957 151.53 27.7455 151.317 27.8175C150.36 28.1541 149.647 28.6701 149.177 29.3643C148.708 30.0585 148.474 30.9265 148.474 31.9673V38.1112H145.823V32.2474C145.823 31.2189 145.914 30.4006 146.098 29.7939C146.178 29.5414 146.255 29.3156 146.331 29.1174C146.408 28.9192 146.492 28.7476 146.583 28.6036C146.693 28.3456 146.884 28.0478 147.159 27.7101C147.867 26.8376 148.661 26.1899 149.542 25.7658C150.422 25.3418 151.394 25.1303 152.455 25.1303C154.583 25.1303 156.351 25.9906 157.76 27.7101V27.709Z" fill="white"/>
<path d="M166.063 38.1112V25.1292H168.714V38.1112H166.063Z" fill="white"/>
<path d="M175.746 27.6459V25.1292H189V27.6459H183.708V38.1112H181.039V27.6459H175.746Z" fill="white"/>
<defs>
<linearGradient id="paint0_linear_1998_662" x1="2.6389" y1="6.10747e-06" x2="68.283" y2="3.74954" gradientUnits="userSpaceOnUse">
<stop stop-color="#452587"/>
<stop offset="1" stop-color="#470ABF"/>
</linearGradient>
</defs>
</svg>
