<svg width="27" height="27" viewBox="0 0 27 27" fill="none" xmlns="http://www.w3.org/2000/svg">
<path fill-rule="evenodd" clip-rule="evenodd" d="M17.9895 8.80032C18.3258 8.47766 18.8598 8.48865 19.1825 8.82487L23.1085 12.9158C23.4218 13.2423 23.4218 13.7577 23.1085 14.0842L19.1825 18.1752C18.8598 18.5113 18.3258 18.5223 17.9895 18.1997C17.6534 17.877 17.6423 17.3429 17.965 17.0067L20.5203 14.344H12.6816C12.2157 14.344 11.8379 13.9662 11.8379 13.5002C11.8379 13.0343 12.2157 12.6565 12.6816 12.6565H20.5208L17.965 9.99332C17.6423 9.6571 17.6534 9.12298 17.9895 8.80032Z" fill="white"/>
<path fill-rule="evenodd" clip-rule="evenodd" d="M3.65625 4.5C3.65625 4.03401 4.03401 3.65625 4.5 3.65625H15.1363C15.6024 3.65625 15.9801 4.03401 15.9801 4.5V7.875C15.9801 8.34099 15.6024 8.71875 15.1363 8.71875C14.6703 8.71875 14.2926 8.34099 14.2926 7.875V5.34375H5.34375V21.6562H14.2926V19.125C14.2926 18.659 14.6703 18.2812 15.1363 18.2812C15.6024 18.2812 15.9801 18.659 15.9801 19.125V22.5C15.9801 22.966 15.6024 23.3438 15.1363 23.3438H4.5C4.03401 23.3438 3.65625 22.966 3.65625 22.5V4.5Z" fill="white"/>
</svg>
