<svg width="17" height="12" viewBox="0 0 17 12" fill="none" xmlns="http://www.w3.org/2000/svg">
<path d="M16.5813 3.20915C11.9544 -1.0705 4.75807 -1.06893 0.132909 3.20915C-0.0410245 3.37002 -0.0444196 3.64241 0.123768 3.80929L1.01798 4.69646C1.17834 4.85576 1.43636 4.85916 1.60298 4.70638C5.41384 1.21518 11.2999 1.2144 15.1115 4.70638C15.2782 4.85916 15.5362 4.8555 15.6965 4.69646L16.5907 3.80929C16.7587 3.64241 16.7553 3.37002 16.5813 3.20915ZM8.35713 8.35715C7.43392 8.35715 6.6857 9.10538 6.6857 10.0286C6.6857 10.9518 7.43392 11.7 8.35713 11.7C9.28033 11.7 10.0286 10.9518 10.0286 10.0286C10.0286 9.10538 9.28033 8.35715 8.35713 8.35715ZM13.6501 6.17411C10.6399 3.51209 6.07092 3.51496 3.06418 6.17411C2.88398 6.33341 2.87823 6.60998 3.04929 6.77869L3.94873 7.66638C4.10543 7.82099 4.35771 7.83143 4.52459 7.68727C6.71704 5.79203 10.0022 5.79621 12.1894 7.68727C12.3563 7.83143 12.6086 7.82125 12.7653 7.66638L13.6647 6.77869C13.836 6.60998 13.83 6.33315 13.6501 6.17411Z" fill="#0066FF"/>
</svg>
