<svg xmlns="http://www.w3.org/2000/svg" width="13" height="14" fill="none"><path fill="#F9FAFB" d="M11.386 11.874H1.523c-.39 0-.705.333-.705.744 0 .41.316.744.705.744h9.863c.39 0 .705-.333.705-.744 0-.41-.316-.744-.705-.744Z"/><path fill="#F9FAFB" d="M.818 11.13v1.488c0 .41.316.743.705.743.389 0 .704-.333.704-.743V11.13c0-.41-.315-.743-.704-.743-.39 0-.705.333-.705.743ZM10.682 11.13v1.488c0 .41.315.743.704.743.39 0 .705-.333.705-.743V11.13c0-.41-.316-.743-.705-.743-.389 0-.704.333-.704.743ZM6.453.72a.679.679 0 0 1 .409.134L9.68 2.951a.75.75 0 0 1 .287.48.776.776 0 0 1-.118.554.723.723 0 0 1-.2.201.683.683 0 0 1-.534.097.687.687 0 0 1-.252-.12l-2.41-1.777L4.058 4.29a.677.677 0 0 1-.986-.149.775.775 0 0 1 .14-1.041L6.032.87a.68.68 0 0 1 .422-.15Z"/><path fill="#F9FAFB" d="M6.454.72a.64.64 0 0 1 .498.262c.132.168.207.395.207.631v7.139c0 .236-.075.463-.207.63a.64.64 0 0 1-.498.262.64.64 0 0 1-.498-.261 1.025 1.025 0 0 1-.206-.631V1.613c0-.236.074-.463.206-.63A.64.64 0 0 1 6.454.72Z"/></svg>