<svg xmlns="http://www.w3.org/2000/svg" width="13" height="14" fill="none"><path fill="#F9FAFB" d="M11.386 11.656H1.523c-.39 0-.705.333-.705.743 0 .411.316.744.705.744h9.863c.39 0 .705-.333.705-.744 0-.41-.316-.743-.705-.743Z"/><path fill="#F9FAFB" d="M.818 10.913V12.4c0 .411.316.744.705.744.389 0 .704-.333.704-.744v-1.487c0-.41-.315-.743-.704-.743-.39 0-.705.333-.705.743ZM10.682 10.913V12.4c0 .411.315.744.704.744.39 0 .705-.333.705-.744v-1.487c0-.41-.316-.743-.705-.743-.389 0-.704.333-.704.743ZM6.455 9.426a.679.679 0 0 1-.409-.134L3.228 7.195a.75.75 0 0 1-.287-.48.776.776 0 0 1 .118-.554.723.723 0 0 1 .2-.201.683.683 0 0 1 .534-.097c.09.022.177.063.252.12l2.41 1.777L8.85 5.856a.677.677 0 0 1 .987.149.775.775 0 0 1-.141 1.041l-2.818 2.23a.68.68 0 0 1-.423.15Z"/><path fill="#F9FAFB" d="M6.455 7.938a.686.686 0 0 1-.499-.217.765.765 0 0 1-.206-.526V1.246c0-.197.074-.386.206-.526a.686.686 0 0 1 .499-.218c.186 0 .366.079.498.218.132.14.206.329.206.526v5.949a.765.765 0 0 1-.206.526.686.686 0 0 1-.498.217Z"/></svg>