<svg xmlns="http://www.w3.org/2000/svg" width="20" height="22" fill="none"><path fill="#B91C1C" d="M2.53.192h14.94C18.866.194 19.999 1.39 20 2.863v15.768c-.002 1.474-1.134 2.669-2.53 2.67H2.53C1.134 21.3.001 20.105 0 18.632V2.863C.001 1.39 1.134.194 2.53.193Zm14.94 19.274c.436 0 .79-.374.79-.835V2.863c0-.46-.354-.834-.79-.835H2.53c-.436 0-.79.374-.79.835v15.768c0 .46.354.834.79.835h14.94ZM3.322 4.57h13.356v8.848h-1.66v1.753H12.53v1.753H7.47V15.17H4.983v-1.753H3.322V4.57Zm11.617 1.836H5.061v5.176h1.66v1.753H9.21v1.753h1.582v-1.753h2.487v-1.753h1.661V6.406ZM7.548 8.122h-1.74V5.488h1.74v2.634Zm3.322 0H9.13V5.488h1.74v2.634Zm3.321 0h-1.739V5.488h1.74v2.634Z"/></svg>