<svg width="14" height="14" viewBox="0 0 14 14" fill="none" xmlns="http://www.w3.org/2000/svg">
<path d="M12.6185 3.33174C12.7981 3.15002 12.8988 2.90487 12.8988 2.64942C12.8988 2.39398 12.7981 2.14882 12.6185 1.96711L11.9316 1.28022C11.7522 1.11415 11.5167 1.0219 11.2722 1.0219C11.0277 1.0219 10.7922 1.11415 10.6128 1.28022L6.94938 4.89785L3.33174 1.28022C3.15002 1.10068 2.90487 1 2.64942 1C2.39398 1 2.14882 1.10068 1.96711 1.28022L1.28022 1.96711C1.10068 2.14882 1 2.39398 1 2.64942C1 2.90487 1.10068 3.15002 1.28022 3.33174L4.94365 6.99517L1.28022 10.6128C1.10068 10.7945 1 11.0397 1 11.2951C1 11.5506 1.10068 11.7957 1.28022 11.9774L1.96711 12.6643C2.14882 12.8439 2.39398 12.9445 2.64942 12.9445C2.90487 12.9445 3.15002 12.8439 3.33174 12.6643L6.94938 9.0009L10.6128 12.6185C10.7945 12.7981 11.0397 12.8988 11.2951 12.8988C11.5506 12.8988 11.7957 12.7981 11.9774 12.6185L12.6643 11.9316C12.8439 11.7499 12.9445 11.5048 12.9445 11.2493C12.9445 10.9939 12.8439 10.7487 12.6643 10.567L9.0009 6.94938L12.6185 3.33174Z" stroke="#FF0000" stroke-linecap="round" stroke-linejoin="round"/>
</svg>
