<svg width="17" height="17" viewBox="0 0 17 17" fill="none" xmlns="http://www.w3.org/2000/svg">
<path d="M9.00383 8.84011L9.00391 8.84029L9.01634 8.83427L15.2456 5.8196L15.2596 5.81259C15.4446 5.71581 15.5975 5.56904 15.7033 5.39082L15.2734 5.13559L15.7033 5.39082C15.809 5.21274 15.8642 5.00926 15.8642 4.80287C15.8642 4.59648 15.809 4.393 15.7033 4.21492L15.2734 4.47015L15.7033 4.21492C15.5975 4.03671 15.4446 3.88993 15.2596 3.79315L15.2443 3.7855L9.01501 0.793499L9.01508 0.793362L9.00383 0.788299C8.7776 0.68642 8.53282 0.633545 8.28489 0.633545C8.03695 0.633545 7.79218 0.68642 7.56594 0.788299L7.56586 0.788125L7.55343 0.79414L1.32415 3.80881L1.31022 3.81582C1.12519 3.9126 0.972251 4.05937 0.866457 4.23759C0.760741 4.41567 0.705566 4.61915 0.705566 4.82554C0.705566 5.03193 0.760741 5.23541 0.866457 5.41349C0.972251 5.5917 1.12519 5.73848 1.31021 5.83526L1.32548 5.84291L7.55476 8.83491L7.5547 8.83505L7.56594 8.84011C7.79218 8.94199 8.03695 8.99487 8.28489 8.99487C8.53282 8.99487 8.7776 8.94199 9.00383 8.84011Z" stroke="#0098E3" stroke-linecap="round" stroke-linejoin="round"/>
<mask id="path-2-outside-1_217_872" maskUnits="userSpaceOnUse" x="-0.818359" y="6.89421" width="18" height="7" fill="black">
<rect fill="white" x="-0.818359" y="6.89421" width="18" height="7"/>
<path d="M15.3888 8.89421L8.72235 12.0789C8.57998 12.1462 8.42531 12.1811 8.26882 12.1811C8.11233 12.1811 7.95766 12.1462 7.81528 12.0789L1.18164 8.89421"/>
</mask>
<path d="M15.8198 9.79654C16.3182 9.55847 16.5292 8.9615 16.2911 8.46315C16.053 7.96481 15.4561 7.75382 14.9577 7.99189L15.8198 9.79654ZM8.72235 12.0789L9.14996 12.9829L9.15341 12.9812L8.72235 12.0789ZM7.81528 12.0789L7.38249 12.9804L7.38768 12.9828L7.81528 12.0789ZM1.61443 7.99272C1.11655 7.75369 0.519167 7.96354 0.280145 8.46142C0.0411227 8.9593 0.25097 9.55668 0.748852 9.79571L1.61443 7.99272ZM14.9577 7.99189L8.2913 11.1766L9.15341 12.9812L15.8198 9.79654L14.9577 7.99189ZM8.29475 11.1749C8.28516 11.1794 8.27644 11.1811 8.26882 11.1811V13.1811C8.57418 13.1811 8.87479 13.113 9.14996 12.9828L8.29475 11.1749ZM8.26882 11.1811C8.2612 11.1811 8.25248 11.1794 8.24289 11.1749L7.38768 12.9828C7.66284 13.113 7.96346 13.1811 8.26882 13.1811V11.1811ZM8.24807 11.1774L1.61443 7.99272L0.748852 9.79571L7.3825 12.9804L8.24807 11.1774Z" fill="#0098E3" mask="url(#path-2-outside-1_217_872)"/>
<mask id="path-4-outside-2_217_872" maskUnits="userSpaceOnUse" x="-0.818359" y="10.5775" width="18" height="7" fill="black">
<rect fill="white" x="-0.818359" y="10.5775" width="18" height="7"/>
<path d="M15.3888 12.5775L8.72235 15.7622C8.57998 15.8295 8.42531 15.8644 8.26882 15.8644C8.11233 15.8644 7.95766 15.8295 7.81528 15.7622L1.18164 12.5775"/>
</mask>
<path d="M15.8198 13.4799C16.3182 13.2418 16.5292 12.6448 16.2911 12.1465C16.053 11.6481 15.4561 11.4371 14.9577 11.6752L15.8198 13.4799ZM8.72235 15.7622L9.14996 16.6662L9.15341 16.6645L8.72235 15.7622ZM7.81528 15.7622L7.38249 16.6637L7.38768 16.6662L7.81528 15.7622ZM1.61443 11.676C1.11655 11.437 0.519167 11.6469 0.280145 12.1447C0.0411227 12.6426 0.25097 13.24 0.748852 13.479L1.61443 11.676ZM14.9577 11.6752L8.2913 14.8599L9.15341 16.6645L15.8198 13.4799L14.9577 11.6752ZM8.29475 14.8582C8.28516 14.8628 8.27644 14.8644 8.26882 14.8644V16.8644C8.57418 16.8644 8.87479 16.7963 9.14996 16.6662L8.29475 14.8582ZM8.26882 14.8644C8.2612 14.8644 8.25248 14.8628 8.24288 14.8582L7.38768 16.6662C7.66284 16.7963 7.96346 16.8644 8.26882 16.8644V14.8644ZM8.24807 14.8607L1.61443 11.676L0.748852 13.479L7.3825 16.6637L8.24807 14.8607Z" fill="#0098E3" mask="url(#path-4-outside-2_217_872)"/>
</svg>
