<svg width="30" height="30" viewBox="0 0 30 30" fill="none" xmlns="http://www.w3.org/2000/svg">
<circle cx="15" cy="15" r="15" fill="#54505B"/>
<path d="M19.6341 6H13.0877C12.9083 5.99952 12.7306 6.03463 12.5648 6.1033C12.399 6.17197 12.2485 6.27284 12.122 6.40007L7.40007 11.122C7.27284 11.2485 7.17197 11.399 7.1033 11.5648C7.03463 11.7306 6.99952 11.9083 7 12.0877V23.4146C7.00041 23.7768 7.14444 24.1239 7.4005 24.38C7.65656 24.636 8.00374 24.7801 8.36586 24.7805H19.6341C19.9963 24.7801 20.3434 24.636 20.5995 24.38C20.8556 24.1239 20.9996 23.7768 21 23.4146V7.36586C20.9996 7.00374 20.8556 6.65656 20.5995 6.4005C20.3434 6.14444 19.9963 6.00041 19.6341 6ZM19.6341 23.4146H8.36586V12.0877L13.0877 7.36586H19.6341V23.4146Z" fill="#37343D"/>
<path d="M12.1221 22.0488H18.2684V13.5122H12.1221V22.0488ZM13.4879 14.8781H16.9026V20.6829H13.4879V14.8781Z" fill="#37343D"/>
</svg>
