<svg width="17" height="17" viewBox="0 0 17 17" fill="none" xmlns="http://www.w3.org/2000/svg">
<path fill-rule="evenodd" clip-rule="evenodd" d="M6.85965 0C3.07117 0 0 3.07117 0 6.85965C0 10.6481 3.07117 13.7193 6.85965 13.7193C8.32305 13.7193 9.67942 13.2611 10.7931 12.4802L14.9635 16.6506C15.4293 17.1165 16.1847 17.1165 16.6506 16.6506C17.1165 16.1847 17.1165 15.4293 16.6506 14.9635L12.4802 10.7931C13.2611 9.67942 13.7193 8.32305 13.7193 6.85965C13.7193 3.07117 10.6481 0 6.85965 0ZM1.78947 6.85965C1.78947 4.05947 4.05947 1.78947 6.85965 1.78947C9.65983 1.78947 11.9298 4.05947 11.9298 6.85965C11.9298 9.65983 9.65983 11.9298 6.85965 11.9298C4.05947 11.9298 1.78947 9.65983 1.78947 6.85965Z" fill="white"/>
</svg>
