<svg width="17" height="17" viewBox="0 0 17 17" fill="none" xmlns="http://www.w3.org/2000/svg">
<path d="M15.0027 9.32875C15.0354 9.06312 15.0573 8.78687 15.0573 8.5C15.0573 8.21313 15.0354 7.93688 14.9917 7.67125L16.8387 6.26875C17.0026 6.14125 17.0463 5.9075 16.948 5.72687L15.1994 2.78375C15.0901 2.5925 14.8606 2.52875 14.6639 2.5925L12.489 3.4425C12.03 3.1025 11.5491 2.82625 11.0136 2.61375L10.6858 0.36125C10.653 0.14875 10.4672 0 10.2486 0H6.75139C6.53281 0 6.35795 0.14875 6.32516 0.36125L5.9973 2.61375C5.46179 2.82625 4.96999 3.11312 4.52191 3.4425L2.34707 2.5925C2.15035 2.51813 1.92085 2.5925 1.81156 2.78375L0.062945 5.72687C-0.0463433 5.91812 -0.00262785 6.14125 0.172233 6.26875L2.01921 7.67125C1.97549 7.93688 1.9427 8.22375 1.9427 8.5C1.9427 8.77625 1.96456 9.06312 2.00828 9.32875L0.161304 10.7313C-0.00262812 10.8588 -0.0463433 11.0925 0.0520162 11.2731L1.80063 14.2163C1.90992 14.4075 2.13942 14.4713 2.33614 14.4075L4.51098 13.5575C4.96999 13.8975 5.45086 14.1737 5.98637 14.3862L6.31424 16.6388C6.35795 16.8512 6.53281 17 6.75139 17H10.2486C10.4672 17 10.653 16.8512 10.6748 16.6388L11.0027 14.3862C11.5382 14.1737 12.03 13.8869 12.4781 13.5575L14.6529 14.4075C14.8497 14.4819 15.0792 14.4075 15.1884 14.2163L16.9371 11.2731C17.0463 11.0819 17.0026 10.8588 16.8278 10.7313L15.0027 9.32875ZM8.5 11.6875C6.69674 11.6875 5.22135 10.2531 5.22135 8.5C5.22135 6.74687 6.69674 5.3125 8.5 5.3125C10.3033 5.3125 11.7786 6.74687 11.7786 8.5C11.7786 10.2531 10.3033 11.6875 8.5 11.6875Z" fill="white"/>
</svg>
