<svg width="17" height="20" viewBox="0 0 17 20" fill="none" xmlns="http://www.w3.org/2000/svg">
<path fill-rule="evenodd" clip-rule="evenodd" d="M9.99371 1.13128C10.3354 1.47299 10.3354 2.02701 9.99371 2.36872L8.85464 3.50784C13.0392 3.69328 16.375 7.14459 16.375 11.375C16.375 15.7243 12.8493 19.25 8.5 19.25C4.15076 19.25 0.625 15.7243 0.625 11.375C0.625 10.8917 1.01675 10.5 1.5 10.5C1.98325 10.5 2.375 10.8917 2.375 11.375C2.375 14.7578 5.11726 17.5 8.5 17.5C11.8827 17.5 14.625 14.7578 14.625 11.375C14.625 8.11773 12.0824 5.4543 8.87362 5.26121L9.99371 6.38128C10.3354 6.72299 10.3354 7.27701 9.99371 7.61872C9.65203 7.96043 9.09797 7.96043 8.75629 7.61872L6.13128 4.99372C5.96719 4.82962 5.875 4.60707 5.875 4.375C5.875 4.14293 5.96719 3.92038 6.13128 3.75628L8.75629 1.13128C9.09797 0.789574 9.65203 0.789574 9.99371 1.13128Z" fill="white"/>
</svg>
