<svg width="13" height="13" viewBox="0 0 13 13" fill="none" xmlns="http://www.w3.org/2000/svg">
<path d="M10.0395 9.51111H2.64192C2.3501 9.51111 2.11353 9.74768 2.11353 10.0395C2.11353 10.3313 2.3501 10.5679 2.64192 10.5679H10.0395C10.3313 10.5679 10.5678 10.3313 10.5678 10.0395C10.5678 9.74768 10.3313 9.51111 10.0395 9.51111Z" fill="white"/>
<path d="M2.11353 8.98275V10.0395C2.11353 10.3314 2.3501 10.5679 2.64192 10.5679C2.93374 10.5679 3.17032 10.3314 3.17032 10.0395V8.98275C3.17032 8.69092 2.93374 8.45435 2.64192 8.45435C2.3501 8.45435 2.11353 8.69092 2.11353 8.98275Z" fill="white"/>
<path d="M9.51099 8.98275V10.0395C9.51099 10.3314 9.74756 10.5679 10.0394 10.5679C10.3312 10.5679 10.5678 10.3314 10.5678 10.0395V8.98275C10.5678 8.69092 10.3312 8.45435 10.0394 8.45435C9.74756 8.45435 9.51099 8.69092 9.51099 8.98275Z" fill="white"/>
<path d="M6.34072 7.92597C6.23118 7.92681 6.12408 7.89357 6.03425 7.83086L3.92067 6.34079C3.80676 6.25998 3.72947 6.13735 3.7057 5.99972C3.68194 5.86209 3.71363 5.72065 3.79386 5.60632C3.8339 5.54917 3.88487 5.50052 3.94382 5.46318C4.00277 5.42584 4.06853 5.40054 4.13731 5.38875C4.20608 5.37696 4.27652 5.37891 4.34454 5.39449C4.41256 5.41006 4.47682 5.43896 4.53361 5.4795L6.34072 6.74237L8.13726 5.38968C8.24938 5.30559 8.3903 5.26949 8.52903 5.28931C8.66776 5.30913 8.79293 5.38325 8.87702 5.49536C8.9611 5.60747 8.9972 5.74839 8.97739 5.88712C8.95757 6.02585 8.88345 6.15103 8.77134 6.23511L6.65776 7.82029C6.5663 7.88889 6.45505 7.92597 6.34072 7.92597Z" fill="white"/>
<path d="M6.34065 6.86916C6.20051 6.86916 6.06611 6.81349 5.96702 6.71439C5.86793 6.6153 5.81226 6.4809 5.81226 6.34076V2.1136C5.81226 1.97346 5.86793 1.83906 5.96702 1.73997C6.06611 1.64088 6.20051 1.58521 6.34065 1.58521C6.48079 1.58521 6.61519 1.64088 6.71428 1.73997C6.81338 1.83906 6.86905 1.97346 6.86905 2.1136V6.34076C6.86905 6.4809 6.81338 6.6153 6.71428 6.71439C6.61519 6.81349 6.48079 6.86916 6.34065 6.86916Z" fill="white"/>
</svg>
